<svg xmlns="http://www.w3.org/2000/svg" viewBox="0 0 609.6 61.5" enable-background="new 0 0 609.6 61.5"><style type="text/css">.st0{fill:#f2f2f2;}</style><path class="st0" d="M0 6.2h10.5c15.5 0 28.4 8.3 28.4 25.4 0 17.5-12.6 26-28.6 26h-10.3v-51.4zm6.3 45.6h2.2c12.9 0 24-4.9 24-19.8 0-15-11.1-19.8-24-19.8h-2.2v39.6zM78.7 6.2h27.2v5.9h-20.8v14.4h20.3v5.9h-20.3v19.4h20.9v5.9h-27.3v-51.5zM169.8 16c-1.9-3.2-4.3-4.8-8.1-4.8-4 0-8.5 2.8-8.5 7.3 0 4 3.9 6.1 7.1 7.4l3.6 1.4c7.2 2.9 12.6 6.9 12.6 15.5 0 9.3-7.1 16-16.2 16-8.2 0-14.6-6.1-15.6-14.4l6.3-1.4c-.1 5.7 4.4 9.8 9.8 9.8s9.3-4.6 9.3-10c0-5.5-4.4-7.9-8.7-9.8l-3.5-1.5c-5.8-2.5-11-5.9-11-13 0-8.3 7.3-13.3 14.9-13.3 5.6 0 10.3 2.8 13 7.8l-5 3zM230.5 57.6h-6.3v-45.5h-12v-5.9h30.3v5.9h-12v45.5zM287.2 57.6h-6.3v-51.4h6.3v51.4zM329.6 3.8l38 40.4v-38h6.3v53.5l-38-40.4v38.3h-6.3v-53.8zM411.2 6.2h7.3l12.4 22 12.4-22h7.3l-16.5 29v22.4h-6.3v-22.3l-16.6-29.1zM515.9 32.1c3.5 0 6.4-2.9 6.5-6.5v-11.4c0-3.6-2.9-6.6-6.5-6.6s-6.5 3-6.5 6.6v11.4c0 3.6 2.9 6.5 6.5 6.5zm20.9-29.6c-4 0-6.8 2.8-10.3 4.6-.2.1-.5.2-.8.3v18.2c-.1 5.4-4.5 9.8-9.8 9.8-5.4 0-9.8-4.5-9.8-10v-18.1l-.8-.3c-3.5-1.7-6.2-4.6-10.3-4.6-6.9 0-11.9 7.2-9.5 13.8 1 2.9 3.1 4.5 5.5 6.1 2.9 1.9 5.6 4.3 7.8 7 3.2 4.1 5.4 9 6.4 14.1.5 2.4.8 5.7 1 7.9.5 5.2 4 9.5 9.7 9.5 5.7 0 9.2-4.3 9.7-9.5.2-2.3.5-5.5 1-7.9 1-5.1 3.2-10 6.4-14.1 2.2-2.8 4.8-5.1 7.8-7 2.4-1.6 4.5-3.2 5.5-6.1 2.3-6.5-2.7-13.7-9.5-13.7zM528.6 56.9c0-1.5 1.2-2.8 2.6-2.8 1.5 0 2.6 1.2 2.6 2.8 0 1.5-1.1 2.8-2.6 2.8-1.4 0-2.6-1.2-2.6-2.8zm4.8 0c0-1.3-1-2.3-2.2-2.3-1.2 0-2.2 1-2.2 2.3 0 1.3 1 2.3 2.2 2.3 1.2.1 2.2-1 2.2-2.3zm-.9 1.5h-.5l-.8-1.4h-.5v1.4h-.4v-3h1.2c.5 0 1 .2 1 .8 0 .6-.4.8-.9.8l.9 1.4zm-1.4-1.8c.3 0 1 .1 1-.4 0-.3-.4-.4-.7-.4h-.8v.8h.5zM581.3 37.5c7.5-6 15.6-10.2 15.6-17.9 0-5.6-3-9.4-8.2-9.4-6 0-9.5 4.4-9.7 12.2h-11.1c0-13.7 6.9-22.4 21-22.4 12.9 0 20.2 8.9 20.2 19.3 0 11.4-7.6 16.7-14.9 21.6-4.6 3-10 6.9-12 10.7h27.4v9.9h-42.6c.4-11.5 7.5-18.6 14.3-24z"/></svg>