<svg t="1645799616207" class="icon" viewBox="0 0 1024 1024" version="1.1" xmlns="http://www.w3.org/2000/svg" p-id="4564" width="200" height="200"><path d="M148.4 149.3v363.9h363.9z" fill="#FFFFFF" p-id="4565"></path><path d="M512.3 532.7H148.4c-10.8 0-19.5-8.7-19.5-19.5V149.3c0-7.9 4.8-15 12-18 7.3-3 15.7-1.4 21.2 4.2L526 499.4c5.6 5.6 7.2 14 4.2 21.2-2.9 7.3-10 12.1-17.9 12.1z m-344.4-39h297.4L167.9 196.3v297.4z" fill="#9A4DFF" p-id="4566"></path><path d="M330.3 695.2l182-182H148.4z" fill="#FFFFFF" p-id="4567"></path><path d="M330.3 714.7c-5 0-10-1.9-13.8-5.7l-182-182c-5.6-5.6-7.2-14-4.2-21.2 3-7.3 10.1-12 18-12h363.9c7.9 0 15 4.8 18 12 3 7.3 1.4 15.7-4.2 21.2L344 709c-3.7 3.8-8.7 5.7-13.7 5.7z m-134.9-182l134.9 134.9 134.9-134.9H195.4z" fill="#9A4DFF" p-id="4568"></path><path d="M876.2 877.2V513.3H512.3z" fill="#FFFFFF" p-id="4569"></path><path d="M876.2 896.7c-5.1 0-10.1-2-13.8-5.7L498.5 527c-5.6-5.6-7.2-14-4.2-21.2 3-7.3 10.1-12 18-12h363.9c10.8 0 19.5 8.7 19.5 19.5v363.9c0 7.9-4.7 15-12 18-2.4 1-5 1.5-7.5 1.5zM559.4 532.8l297.4 297.4V532.8H559.4z" fill="#9A4DFF" p-id="4570"></path><path d="M694.2 331.3L512.3 513.2h363.9z" fill="#FFFFFF" p-id="4571"></path><path d="M876.2 532.7H512.3c-7.9 0-15-4.7-18-12s-1.4-15.7 4.2-21.2l182-182c7.3-7.3 20.3-7.3 27.6 0l182 182c5.6 5.6 7.2 14 4.2 21.2-3.1 7.3-10.2 12-18.1 12z m-316.8-39h269.8l-135-134.9-134.8 134.9z" fill="#9A4DFF" p-id="4572"></path><path d="M148.3 877.1h363.9V513.2z" fill="#FFFFFF" p-id="4573"></path><path d="M512.2 896.6H148.3c-7.9 0-15-4.7-18-12s-1.4-15.7 4.2-21.2l363.9-363.9c5.6-5.6 14-7.2 21.2-4.2 7.3 3 12 10.1 12 18v363.9c0.1 10.7-8.6 19.4-19.4 19.4z m-316.8-39h297.4V560.3L195.4 857.6z" fill="#9A4DFF" p-id="4574"></path><path d="M694.3 695.2l-182-182v363.9z" fill="#FFFFFF" p-id="4575"></path><path d="M512.3 896.6c-2.5 0-5-0.5-7.5-1.5-7.3-3-12-10.1-12-18V513.2c0-7.9 4.8-15 12-18 7.3-3 15.7-1.3 21.2 4.2l182 182c3.7 3.7 5.7 8.6 5.7 13.8 0 5.2-2.1 10.1-5.7 13.8L526 891c-3.7 3.7-8.6 5.6-13.7 5.6z m19.5-336.3v269.8l134.9-134.9-134.9-134.9z" fill="#9A4DFF" p-id="4576"></path><path d="M876.2 149.3H512.3v363.9z" fill="#FFFFFF" p-id="4577"></path><path d="M512.3 532.7c-2.5 0-5-0.5-7.5-1.5-7.3-3-12-10.1-12-18V149.3c0-10.8 8.7-19.5 19.5-19.5h363.9c7.9 0 15 4.8 18 12 3 7.3 1.4 15.7-4.2 21.2L526.1 527c-3.7 3.7-8.7 5.7-13.8 5.7z m19.5-363.9v297.4l297.4-297.4H531.8z" fill="#9A4DFF" p-id="4578"></path><path d="M330.3 331.3l182 181.9V149.3z" fill="#FFFFFF" p-id="4579"></path><path d="M512.3 532.7c-5.1 0-10.1-2-13.8-5.7l-182-182c-7.6-7.6-7.6-20 0-27.6l182-182c5.6-5.6 14-7.2 21.2-4.2 7.3 3 12 10.1 12 18v363.9c0 7.9-4.7 15-12 18-2.4 1.1-4.9 1.6-7.4 1.6zM357.9 331.3l134.9 134.9V196.4L357.9 331.3z" fill="#9A4DFF" p-id="4580"></path><path d="M512.3 513.3m-74.3 0a74.3 74.3 0 1 0 148.6 0 74.3 74.3 0 1 0-148.6 0Z" fill="#FFFFFF" p-id="4581"></path><path d="M512.3 607c-51.7 0-93.8-42.1-93.8-93.8 0-51.7 42.1-93.8 93.8-93.8s93.8 42.1 93.8 93.8c0 51.8-42.1 93.8-93.8 93.8z m0-148.5c-30.2 0-54.8 24.6-54.8 54.8 0 30.2 24.6 54.8 54.8 54.8 30.2 0 54.8-24.6 54.8-54.8 0-30.2-24.6-54.8-54.8-54.8z" fill="#FF3399" p-id="4582"></path></svg>